<?xml version="1.0" standalone="no"?>
<!DOCTYPE svg PUBLIC "-//W3C//DTD SVG 20010904//EN"
 "http://www.w3.org/TR/2001/REC-SVG-20010904/DTD/svg10.dtd">
<svg version="1.0" xmlns="http://www.w3.org/2000/svg"
 width="1024.000000pt" height="1024.000000pt" viewBox="0 0 1024.000000 1024.000000"
 preserveAspectRatio="xMidYMid meet">

<g transform="translate(0.000000,1024.000000) scale(0.100000,-0.100000)"
fill="#000000" stroke="none">
<path d="M4575 8549 c-192 -18 -338 -40 -460 -68 -22 -5 -65 -14 -95 -20 -59
-12 -57 -12 -240 -72 -775 -253 -1403 -713 -1854 -1358 -47 -68 -86 -131 -86
-141 0 -21 47 -43 296 -139 234 -90 362 -147 509 -228 484 -266 820 -618 1065
-1118 62 -126 144 -325 137 -332 -2 -2 -30 43 -62 99 -215 386 -495 712 -811
945 -289 213 -716 401 -1198 529 -84 22 -74 32 -152 -155 -31 -75 -62 -149
-69 -166 -60 -141 -78 -232 -51 -254 8 -7 65 -25 128 -41 378 -96 812 -279
1084 -456 415 -269 639 -651 595 -1015 -26 -212 -104 -365 -271 -530 -184
-181 -402 -290 -703 -351 -102 -21 -138 -23 -409 -22 -243 0 -298 -2 -302 -13
-9 -23 144 -312 260 -490 63 -97 50 -93 249 -68 413 54 745 190 1080 443 146
111 396 386 520 575 21 31 40 55 42 53 6 -6 -62 -138 -125 -240 -97 -159 -222
-317 -357 -451 -282 -282 -584 -442 -1040 -552 -82 -20 -154 -39 -158 -43 -32
-28 487 -510 549 -510 55 0 428 211 606 342 393 291 756 726 983 1179 25 49
47 89 50 89 12 0 -100 -323 -165 -476 -148 -344 -335 -625 -587 -881 -158
-160 -349 -313 -515 -413 -32 -19 -58 -38 -58 -42 0 -12 74 -50 210 -108 239
-101 435 -160 702 -207 149 -27 162 -27 548 -28 387 0 398 1 548 28 502 90
985 291 1406 586 148 104 212 155 446 355 326 277 298 259 505 341 66 26 165
70 219 97 310 155 502 291 722 512 261 262 437 523 655 978 5 10 6 24 3 33 -3
8 -1 15 5 15 6 0 11 7 11 15 0 8 11 38 25 67 13 29 36 85 50 123 14 39 30 72
36 74 18 6 29 49 19 75 -4 13 -43 52 -84 86 -84 69 -81 64 -204 340 -39 85
-81 180 -95 210 -14 30 -54 123 -90 205 -36 83 -84 191 -107 240 -23 50 -60
131 -82 180 -182 404 -426 759 -745 1082 -106 107 -131 130 -263 244 -163 141
-490 354 -692 452 -118 57 -227 107 -234 107 -3 0 -20 7 -37 15 -84 38 -216
84 -372 129 -49 15 -103 31 -120 36 -72 22 -336 72 -480 90 -246 30 -674 39
-890 19z m0 -319 c24 -27 16 -79 -25 -166 -62 -128 -256 -297 -366 -317 -116
-22 -66 207 79 356 116 120 264 180 312 127z m1363 -27 c18 -13 28 -31 30 -53
3 -27 -4 -39 -41 -75 -56 -53 -128 -80 -220 -79 -84 0 -120 22 -125 77 -5 63
49 116 148 144 64 18 175 11 208 -14z m-572 -112 c54 -25 74 -55 74 -111 0
-153 -281 -241 -397 -125 -28 28 -33 40 -33 79 0 36 6 52 31 80 34 39 85 73
127 86 51 15 155 11 198 -9z m-1682 -170 c26 -29 13 -89 -35 -161 -81 -120
-211 -207 -327 -217 -52 -5 -62 -3 -81 16 -43 43 -14 145 68 233 86 94 195
147 302 148 43 0 60 -5 73 -19z m1170 -185 c70 -29 84 -93 37 -168 -64 -100
-176 -153 -319 -149 -44 1 -92 48 -92 89 0 82 78 173 187 218 66 27 137 31
187 10z m-844 -251 c23 -28 8 -126 -33 -207 -81 -163 -286 -305 -328 -226 -33
62 20 221 107 317 93 104 217 160 254 116z m3045 -35 c211 -36 372 -87 553
-173 53 -25 80 -48 157 -136 104 -117 208 -255 158 -208 -16 15 -33 24 -37 20
-4 -5 -6 -1 -4 7 2 9 -4 15 -14 15 -9 0 -20 4 -25 9 -5 5 -2 6 6 1 10 -6 12
-4 7 4 -6 9 -13 8 -28 -6 -20 -18 -21 -18 -10 4 11 19 8 24 -31 46 -575 335
-1254 385 -1835 136 -668 -287 -1123 -903 -1203 -1630 -14 -128 -6 -391 16
-514 70 -396 219 -681 504 -965 198 -196 390 -324 644 -428 388 -159 805 -201
1230 -125 75 13 98 14 162 2 41 -7 72 -16 68 -20 -12 -11 -170 -57 -253 -73
-191 -37 -230 -41 -445 -40 -182 0 -243 4 -355 23 -459 78 -861 281 -1170 590
-295 295 -477 658 -536 1069 -23 156 -23 437 0 596 19 130 60 299 101 416 40
112 155 343 222 445 352 534 932 888 1566 955 133 14 416 4 552 -20z m-4108
-65 c126 -38 189 -179 129 -295 -79 -156 -311 -160 -385 -6 -51 105 -13 233
84 283 67 35 101 39 172 18z m1424 -144 c20 -16 23 -27 22 -83 -1 -133 -66
-272 -173 -371 -73 -68 -129 -90 -160 -62 -16 14 -20 31 -20 79 0 172 119 375
255 437 50 23 48 23 76 0z m2886 -75 c151 -33 267 -69 381 -118 53 -23 101
-41 108 -41 7 0 11 -3 9 -7 -6 -10 65 -41 77 -34 7 5 8 2 3 -6 -6 -10 -4 -12
9 -7 9 4 15 3 12 -1 -2 -4 25 -26 62 -47 41 -25 81 -59 104 -90 39 -51 148
-221 148 -231 0 -2 -10 4 -22 15 -11 11 -25 18 -29 15 -4 -2 -11 1 -15 7 -4 8
-3 9 4 5 7 -4 12 -5 12 -2 0 13 -269 182 -376 235 -797 399 -1744 179 -2274
-527 -175 -233 -281 -484 -326 -770 -26 -165 -16 -458 20 -617 68 -296 194
-523 411 -740 316 -316 760 -505 1225 -521 149 -6 168 -8 200 -29 20 -12 55
-32 79 -44 23 -12 41 -24 39 -27 -15 -14 -281 -23 -405 -14 -771 59 -1421 533
-1643 1199 -149 447 -109 954 109 1378 255 496 732 872 1272 1003 181 43 240
49 479 45 184 -3 231 -7 327 -29z m548 -176 c3 -5 1 -10 -4 -10 -6 0 -11 5
-11 10 0 6 2 10 4 10 3 0 8 -4 11 -10z m-4370 -89 c89 -60 133 -235 83 -331
-13 -25 -35 -51 -49 -57 -60 -29 -140 20 -185 113 -53 109 -28 276 45 303 33
12 57 6 106 -28z m3981 -15 c201 -42 396 -118 567 -219 43 -26 75 -41 71 -34
-3 6 4 -1 17 -16 13 -15 32 -29 42 -31 10 -1 22 -7 25 -12 4 -5 23 -21 43 -36
24 -18 53 -60 90 -129 30 -56 56 -106 58 -111 1 -5 -19 13 -45 39 -63 62 -225
172 -244 165 -8 -3 -11 -1 -7 4 24 26 -302 178 -483 224 -212 55 -491 67 -702
31 -652 -112 -1170 -613 -1310 -1266 -31 -144 -31 -389 0 -532 82 -381 316
-698 671 -910 94 -56 307 -153 346 -157 12 -1 26 -6 33 -10 7 -4 12 -5 12 -2
0 12 -91 66 -102 60 -6 -4 -8 -3 -5 3 4 6 -26 32 -66 58 -319 212 -510 482
-584 828 -26 117 -25 398 1 522 115 551 554 1037 1097 1216 299 98 605 92 919
-20 46 -16 88 -27 92 -25 4 3 8 1 8 -4 0 -9 81 -49 89 -44 2 2 7 -1 10 -6 3
-6 13 -12 20 -14 8 -2 21 -9 30 -16 9 -7 52 -38 96 -69 119 -83 142 -109 192
-213 84 -177 84 -171 15 -109 -79 72 -244 170 -361 214 -604 232 -1235 -35
-1569 -666 -60 -112 -114 -264 -144 -403 -28 -134 -31 -388 -4 -521 39 -196
127 -413 236 -579 85 -130 224 -287 314 -354 l29 -22 -55 0 c-195 0 -522 108
-748 247 -176 109 -361 281 -467 434 -115 167 -199 372 -239 579 -29 151 -25
399 9 561 69 331 214 603 449 845 296 304 638 475 1058 528 19 2 112 3 205 1
133 -3 196 -9 291 -29z m-3516 -465 c82 -87 105 -232 53 -331 -54 -103 -137
-117 -214 -37 -78 82 -99 228 -48 334 31 65 64 86 122 80 41 -3 54 -11 87 -46z
m793 -3202 c21 -6 57 -27 79 -47 135 -122 87 -326 -89 -378 -152 -44 -303 62
-303 213 1 66 31 129 87 176 49 42 148 58 226 36z m850 -192 c56 -33 77 -65
77 -119 0 -89 -79 -156 -195 -166 -86 -6 -148 12 -196 58 -35 33 -39 42 -39
86 0 72 26 106 115 150 68 34 171 30 238 -9z m820 -92 c41 -19 67 -58 67 -101
0 -37 -81 -115 -136 -132 -61 -18 -152 -15 -201 7 -56 26 -77 60 -70 112 8 59
55 103 137 130 41 14 161 4 203 -16z m-1975 -299 c47 -24 82 -72 82 -113 0
-28 -8 -44 -38 -73 -134 -134 -433 -51 -369 102 19 45 47 68 109 90 62 22 168
19 216 -6z m822 -5 c72 -38 75 -104 7 -149 -36 -24 -50 -27 -127 -27 -79 0
-90 2 -123 28 -29 22 -37 35 -37 61 0 35 30 71 78 92 44 20 162 17 202 -5z
m789 -5 c56 -50 -5 -146 -118 -184 -40 -14 -145 -16 -137 -3 3 5 -1 8 -9 7 -9
0 -23 11 -32 25 -31 50 8 116 91 156 64 30 171 29 205 -1z m-1159 -232 c17 -3
44 -17 60 -31 39 -32 41 -83 5 -117 -81 -75 -285 -54 -309 32 -17 61 23 103
117 122 40 8 62 7 127 -6z m779 -60 c18 -13 21 -22 16 -43 -9 -34 -21 -48 -67
-77 -93 -59 -277 -89 -314 -52 -53 53 21 136 156 174 67 18 181 17 209 -2z
m-1164 -193 c65 -37 34 -109 -59 -136 -66 -20 -112 -19 -163 4 -122 56 -11
172 147 154 25 -3 59 -13 75 -22z"/>
<path d="M7178 6515 c-374 -63 -733 -295 -971 -628 -338 -472 -367 -1020 -79
-1462 57 -86 240 -273 342 -347 132 -96 141 -99 76 -28 -148 165 -274 415
-323 640 -25 120 -25 401 1 520 90 419 333 785 674 1014 206 138 403 203 648
213 140 6 280 -11 397 -47 33 -10 66 -16 75 -13 9 4 13 2 9 -4 -3 -5 19 -20
51 -33 31 -12 72 -32 90 -42 65 -39 30 -8 -42 36 -138 87 -318 152 -501 181
-109 18 -340 18 -447 0z"/>
</g>
</svg>
